<?xml version="1.0" encoding="utf-8"?>
<svg version="1.2" baseProfile="tiny" id="Layer_1" xmlns="http://www.w3.org/2000/svg" xmlns:xlink="http://www.w3.org/1999/xlink"
	 x="0px" y="0px" width="716.964px" height="526.474px" viewBox="0 0 716.964 526.474" xml:space="preserve">
<path fill="none" stroke="#414042" stroke-miterlimit="10" d="M9.12,515.393V35.825c0-13.661,11.074-24.736,24.735-24.736h649.956
	c13.662,0,24.735,11.075,24.735,24.736v479.567"/>
<line fill="none" stroke="#000000" stroke-miterlimit="10" x1="8.547" y1="514.477" x2="707.974" y2="514.477"/>
<rect x="34.541" y="61.928" fill="none" stroke="#414042" stroke-miterlimit="10" width="648.585" height="425.978"/>
<rect x="34.541" y="61.929" fill="#00AEEF" width="648.585" height="118.174"/>
<line fill="none" stroke="#F1F2F2" stroke-width="5" stroke-miterlimit="10" x1="340.625" y1="102.694" x2="612.703" y2="102.694"/>
<line fill="none" stroke="#F1F2F2" stroke-width="5" stroke-miterlimit="10" x1="340.625" y1="143.46" x2="542.622" y2="143.46"/>
<line fill="none" stroke="#808285" stroke-width="2" stroke-miterlimit="10" x1="71.299" y1="255.144" x2="612.703" y2="255.144"/>
<line fill="none" stroke="#808285" stroke-width="2" stroke-miterlimit="10" x1="70.613" y1="309.964" x2="550.868" y2="309.964"/>
<line fill="none" stroke="#808285" stroke-width="2" stroke-miterlimit="10" x1="70.613" y1="364.696" x2="431.319" y2="364.696"/>
<g>
	<path fill="#F1F2F2" d="M68.529,107.727h9.816l3.534,18.723l5.172-18.723h9.781l5.185,18.698l3.538-18.698h9.765l-7.373,33.445
		H97.813l-5.866-21.057l-5.843,21.057H75.97L68.529,107.727z"/>
	<path fill="#F1F2F2" d="M132.613,107.727h10.357v18.17c0,3.815-0.339,6.718-1.015,8.709c-0.677,1.991-2.038,3.678-4.083,5.061
		c-2.046,1.383-4.666,2.075-7.859,2.075c-3.376,0-5.993-0.456-7.848-1.369s-3.289-2.247-4.3-4.004
		c-1.012-1.757-1.608-3.928-1.791-6.513l9.878-1.346c0.015,1.476,0.145,2.57,0.388,3.285c0.243,0.715,0.654,1.293,1.232,1.734
		c0.396,0.289,0.958,0.434,1.688,0.434c1.156,0,2.003-0.429,2.543-1.288c0.54-0.858,0.81-2.306,0.81-4.342V107.727z"/>
</g>
<rect x="228.407" y="28.244" fill="none" stroke="#808285" stroke-miterlimit="10" width="453.803" height="19.275"/>

</svg>
